<svg xmlns="http://www.w3.org/2000/svg" width="144.67137" height="122.9454" viewBox="0 0 144.67137 122.9454">
  <path
    d="M3.19524,93.80422h26.2811a3.19048,3.19048,0,0,0,2.763-4.78572l-7.70356-13.343a5.675,5.675,0,0,1,0-5.675L38.80118,45.29222a3.19047,3.19047,0,0,1,5.52607,0l43.912,76.05794a3.19047,3.19047,0,0,0,5.52607,0L144.23917,33.9269a3.19048,3.19048,0,0,0-2.763-4.78572H115.195a3.19048,3.19048,0,0,0-2.763,4.78572l7.70352,13.34289a5.675,5.675,0,0,1,0,5.675l-14.26533,24.7083a3.19048,3.19048,0,0,1-5.52608,0L56.43211,1.59524a3.19047,3.19047,0,0,0-5.52607,0L.4322,89.0185A3.19048,3.19048,0,0,0,3.19524,93.80422Z"
    style="fill: #fff" />
</svg>