<?xml version="1.0" encoding="UTF-8"?>
<svg id="b" data-name="Layer 2" xmlns="http://www.w3.org/2000/svg" width="527.796" height="207.976" viewBox="0 0 527.796 207.976">
  <g id="c" data-name="Layer 1">
    <g>
      <path d="M92.564,169.704h0c-2.95,0-5.341-2.391-5.341-5.341V0H0v207.976h38.271V43.612c0-2.95,2.391-5.341,5.341-5.341h0c2.95,0,5.341,2.391,5.341,5.341v164.364h87.224V0h-38.271v164.364c0,2.95-2.391,5.341-5.341,5.341Z" fill="#0049ff" stroke-width="0"/>
      <path d="M146.857,207.976h87.224V0h-87.224v207.976ZM190.469,38.271h0c2.95,0,5.341,2.391,5.341,5.341v120.752c0,2.95-2.391,5.341-5.341,5.341h0c-2.95,0-5.341-2.391-5.341-5.341V43.612c0-2.95,2.391-5.341,5.341-5.341Z" fill="#0049ff" stroke-width="0"/>
      <path d="M244.762,207.976h38.271v-43.612c0-2.95,2.391-5.341,5.341-5.341h0c2.95,0,5.341,2.391,5.341,5.341v43.612h38.271V0h-87.224v207.976ZM288.374,38.271h0c2.95,0,5.341,2.391,5.341,5.341v71.799c0,2.95-2.391,5.341-5.341,5.341h0c-2.95,0-5.341-2.391-5.341-5.341V43.612c0-2.95,2.391-5.341,5.341-5.341Z" fill="#0049ff" stroke-width="0"/>
      <path d="M386.279,120.752h0c-2.95,0-5.341-2.391-5.341-5.341V0S342.667,0,342.667,0v207.976h38.271v-43.612c0-2.95,2.391-5.341,5.341-5.341h0c2.95,0,5.341,2.391,5.341,5.341v43.612s38.271,0,38.271,0V0h-38.271v115.411c0,2.95-2.391,5.341-5.341,5.341Z" fill="#0049ff" stroke-width="0"/>
      <path d="M440.572,0v207.976h38.271v-48.952h48.952V0h-87.224ZM484.184,120.752h0c-2.95,0-5.341-2.391-5.341-5.341V43.612c0-2.95,2.391-5.341,5.341-5.341h0c2.95,0,5.341,2.391,5.341,5.341v71.799c0,2.95-2.391,5.341-5.341,5.341Z" fill="#0049ff" stroke-width="0"/>
      <rect x="489.524" y="169.704" width="38.271" height="38.271" fill="#0049ff" stroke-width="0"/>
    </g>
  </g>
</svg>